<svg width="48" height="48" fill="none" xmlns="http://www.w3.org/2000/svg"><path d="M13.5 44h29c.275 0 .5-.225.5-.5V14h-8.5c-.827 0-1.5-.673-1.5-1.5V4H13.5c-.275 0-.5.225-.5.5v39c0 .275.225.5.5.5z" fill="#fff"/><path d="M42.293 13 34 4.707V12.5c0 .275.225.5.5.5h7.793z" fill="#fff"/><path opacity=".67" fill-rule="evenodd" clip-rule="evenodd" d="m43.56 12.854-9.414-9.415A1.51 1.51 0 0 0 33.086 3H13.5c-.827 0-1.5.673-1.5 1.5v39c0 .827.673 1.5 1.5 1.5h29c.827 0 1.5-.673 1.5-1.5V13.914c0-.4-.156-.777-.44-1.06zM34 4.707 42.293 13H34.5a.501.501 0 0 1-.5-.5V4.707zM13.5 44h29c.275 0 .5-.225.5-.5V14h-8.5c-.827 0-1.5-.673-1.5-1.5V4H13.5c-.275 0-.5.225-.5.5v39c0 .276.224.5.5.5z" fill="#605E5C"/><path d="M39.5 30H28v1h11.5a.5.5 0 0 0 0-1z" fill="#103F91"/><path d="M39.5 27H28v1h11.5a.5.5 0 0 0 0-1z" fill="#185ABD"/><path d="M39.5 24H28v1h11.5a.5.5 0 0 0 0-1z" fill="#2B7CD3"/><path d="M39.5 21H28v1h11.5a.5.5 0 0 0 0-1z" fill="#41A5EE"/><path d="M6 37h18a2 2 0 0 0 2-2V17a2 2 0 0 0-2-2H6a2 2 0 0 0-2 2v18a2 2 0 0 0 2 2z" fill="#185ABD"/><path d="M11.829 29.322c.033.262.055.49.065.684h.038c.045-.446.117-.89.214-1.328L13.921 21h2.295l1.836 7.564c.092.373.168.848.23 1.426h.03c.026-.399.09-.859.191-1.38l1.47-7.61h2.088l-2.57 11H17.05l-1.752-7.287c-.051-.21-.109-.484-.172-.822a10.585 10.585 0 0 1-.119-.736h-.03c-.02.18-.06.446-.119.798-.059.354-.106.613-.141.783L13.072 32h-2.479L8 21h2.127l1.598 7.694c.036.159.07.369.104.628z" fill="#F9F7F7"/></svg>