<svg width="48" height="48" fill="none" xmlns="http://www.w3.org/2000/svg"><path d="M43 6.5c0-.827-.673-1.5-1.5-1.5h-35C5.673 5 5 5.673 5 6.5v35c0 .827.673 1.5 1.5 1.5h35c.827 0 1.5-.673 1.5-1.5v-35z" fill="#fff"/><path opacity=".67" fill-rule="evenodd" clip-rule="evenodd" d="M6.5 44h35c1.379 0 2.5-1.122 2.5-2.5v-35C44 5.122 42.879 4 41.5 4h-35A2.503 2.503 0 0 0 4 6.5v35A2.503 2.503 0 0 0 6.5 44zM5 6.5C5 5.673 5.673 5 6.5 5h35c.827 0 1.5.673 1.5 1.5v35c0 .827-.673 1.5-1.5 1.5h-35c-.827 0-1.5-.673-1.5-1.5v-35z" fill="#605E5C"/><path d="M32 24a.53.53 0 0 1-.25.46l-12 7.47a.48.48 0 0 1-.5 0 .56.56 0 0 1-.25-.46V24h13z" fill="#BC1948"/><path d="M19 24v-7.47a.56.56 0 0 1 .25-.46.5.5 0 0 1 .5 0l12 7.47A.532.532 0 0 1 32 24H19z" fill="#E8467C"/></svg>