<svg width="35" height="35" viewBox="0 0 35 35" fill="none" xmlns="http://www.w3.org/2000/svg">
<path d="M30.625 2.91666L27.7083 5.83333M27.7083 5.83333L32.0833 10.2083L26.9792 15.3125L22.6042 10.9375M27.7083 5.83333L22.6042 10.9375M16.6104 16.9312C17.3634 17.6742 17.962 18.5588 18.3717 19.5341C18.7814 20.5093 18.9942 21.556 18.9978 22.6138C19.0013 23.6717 18.7956 24.7197 18.3924 25.6977C17.9892 26.6757 17.3965 27.5643 16.6485 28.3123C15.9005 29.0603 15.012 29.6529 14.034 30.0561C13.056 30.4593 12.0079 30.665 10.9501 30.6615C9.89227 30.658 8.84559 30.4452 7.87032 30.0355C6.89506 29.6258 6.01048 29.0272 5.2675 28.2742C3.80644 26.7614 2.99799 24.7353 3.01626 22.6323C3.03454 20.5293 3.87808 18.5175 5.36521 17.0304C6.85234 15.5433 8.86406 14.6997 10.9671 14.6815C13.0701 14.6632 15.0962 15.4716 16.609 16.9327L16.6104 16.9312ZM16.6104 16.9312L22.6042 10.9375" stroke="#F3F3F3" stroke-width="4" stroke-linecap="round" stroke-linejoin="round"/>
</svg>
